<svg xmlns="http://www.w3.org/2000/svg" width="960" height="540" viewBox="0 0 960 540"><rect width="960" height="540" fill="#172b24"/><g font-family="Arial, sans-serif"><text x="60" y="95" font-size="43" font-weight="700" fill="#f3f5ef">Recon Engine</text><text x="60" y="134" font-size="15" letter-spacing="2" fill="#a9c3b4">SYNTHETIC BATCH · VERIFIED AWS RELEASE</text><rect x="60" y="190" width="250" height="78" rx="8" fill="#29483b" stroke="#789b88"/><text x="185" y="237" font-size="23" text-anchor="middle" fill="#f3f5ef">Ledger + settlement</text><path d="M317 229h22m-8-7 8 7-8 7" stroke="#b9cebf" fill="none" stroke-width="2"/><rect x="347" y="190" width="250" height="78" rx="8" fill="#29483b" stroke="#789b88"/><text x="472" y="237" font-size="23" text-anchor="middle" fill="#f3f5ef">Allocation guards</text><path d="M604 229h22m-8-7 8 7-8 7" stroke="#b9cebf" fill="none" stroke-width="2"/><rect x="634" y="190" width="250" height="78" rx="8" fill="#29483b" stroke="#789b88"/><text x="759" y="237" font-size="23" text-anchor="middle" fill="#f3f5ef">Review + replay</text><text x="60" y="364" font-size="43" fill="#e3c990">500</text><text x="60" y="400" font-size="21" fill="#c0d0c4">transactions</text><text x="347" y="364" font-size="43" fill="#e3c990">383</text><text x="347" y="400" font-size="21" fill="#c0d0c4">matched</text><text x="634" y="364" font-size="43" fill="#e3c990">117</text><text x="634" y="400" font-size="21" fill="#c0d0c4">for review</text><path d="M60 440H900" stroke="#4c6859"/><text x="60" y="480" font-size="20" fill="#c0d0c4">Docker · Terraform · CI/CD · Backup and recovery verified</text></g></svg>